<svg width="102" height="102" viewBox="0 0 102 102" fill="none" xmlns="http://www.w3.org/2000/svg">
<path d="M18.357 31.2619C21.9206 27.6984 27.6982 27.6984 31.2617 31.2619C34.8244 34.8245 34.8253 40.6001 31.2645 44.1639C34.8283 40.6031 40.6038 40.604 44.1664 44.1666C47.73 47.7301 47.73 53.5078 44.1664 57.0713C40.6029 60.6348 34.8253 60.6348 31.2617 57.0713C34.8253 60.6348 34.8253 66.4125 31.2617 69.976C27.6982 73.5395 21.9206 73.5395 18.357 69.976C14.7935 66.4125 14.7935 60.6348 18.357 57.0713C14.7935 60.6348 9.01588 60.6348 5.45235 57.0713C1.88882 53.5078 1.88882 47.7301 5.45235 44.1666C9.01588 40.6031 14.7935 40.6031 18.357 44.1666C14.7935 40.6031 14.7935 34.8254 18.357 31.2619ZM21.5832 47.3928C19.8015 49.1746 19.8015 52.0634 21.5832 53.8451C23.365 55.6269 26.2538 55.6269 28.0356 53.8451C29.8173 52.0634 29.8173 49.1746 28.0356 47.3928C26.2538 45.611 23.365 45.611 21.5832 47.3928Z" fill="#FFF9EF"/>
<path d="M44.1664 5.45259C47.7299 1.88906 53.5075 1.88906 57.0711 5.45259C60.6337 9.0152 60.6346 14.7908 57.0738 18.3545C60.6376 14.7938 66.4132 14.7947 69.9758 18.3573C73.5393 21.9208 73.5393 27.6985 69.9758 31.262C66.4122 34.8255 60.6346 34.8255 57.0711 31.262C60.6346 34.8255 60.6346 40.6031 57.0711 44.1667C53.5075 47.7302 47.7299 47.7302 44.1664 44.1667C40.6028 40.6032 40.6028 34.8255 44.1664 31.262C40.6028 34.8255 34.8252 34.8255 31.2617 31.262C27.6981 27.6985 27.6981 21.9208 31.2617 18.3573C34.8252 14.7938 40.6028 14.7938 44.1664 18.3573C40.6028 14.7938 40.6028 9.01612 44.1664 5.45259ZM47.3925 21.5835C45.6108 23.3652 45.6108 26.254 47.3925 28.0358C49.1743 29.8176 52.0631 29.8176 53.8449 28.0358C55.6267 26.254 55.6267 23.3652 53.8449 21.5835C52.0631 19.8017 49.1743 19.8017 47.3925 21.5835Z" fill="#E2E3E9"/>
<path d="M44.1664 57.0712C47.7299 53.5077 53.5075 53.5077 57.0711 57.0712C60.6337 60.6339 60.6346 66.4094 57.0738 69.9732C60.6376 66.4124 66.4132 66.4133 69.9758 69.9759C73.5393 73.5395 73.5393 79.3171 69.9758 82.8806C66.4122 86.4442 60.6346 86.4442 57.0711 82.8806C60.6346 86.4442 60.6346 92.2218 57.0711 95.7853C53.5075 99.3489 47.7299 99.3489 44.1664 95.7853C40.6028 92.2218 40.6028 86.4442 44.1664 82.8806C40.6028 86.4442 34.8252 86.4442 31.2617 82.8806C27.6981 79.3171 27.6981 73.5395 31.2617 69.9759C34.8252 66.4124 40.6028 66.4124 44.1664 69.9759C40.6028 66.4124 40.6028 60.6348 44.1664 57.0712ZM47.3925 73.2021C45.6108 74.9839 45.6108 77.8727 47.3925 79.6545C49.1743 81.4362 52.0631 81.4362 53.8449 79.6545C55.6267 77.8727 55.6267 74.9839 53.8449 73.2021C52.0631 71.4203 49.1743 71.4203 47.3925 73.2021Z" fill="#E2E3E9"/>
<path d="M69.9759 31.2619C73.5395 27.6984 79.3171 27.6984 82.8806 31.2619C86.4433 34.8245 86.4442 40.6001 82.8834 44.1639C86.4472 40.6031 92.2227 40.604 95.7853 44.1666C99.3489 47.7301 99.3489 53.5078 95.7853 57.0713C92.2218 60.6348 86.4442 60.6348 82.8806 57.0713C86.4442 60.6348 86.4442 66.4125 82.8806 69.976C79.3171 73.5395 73.5395 73.5395 69.9759 69.976C66.4124 66.4125 66.4124 60.6348 69.9759 57.0713C66.4124 60.6348 60.6348 60.6348 57.0712 57.0713C53.5077 53.5078 53.5077 47.7301 57.0712 44.1666C60.6348 40.6031 66.4124 40.6031 69.9759 44.1666C66.4124 40.6031 66.4124 34.8254 69.9759 31.2619ZM73.2021 47.3928C71.4204 49.1746 71.4204 52.0634 73.2021 53.8451C74.9839 55.6269 77.8727 55.6269 79.6545 53.8451C81.4362 52.0634 81.4362 49.1746 79.6545 47.3928C77.8727 45.611 74.9839 45.611 73.2021 47.3928Z" fill="#FFF9EF"/>
</svg>
