<svg width="50" height="68" viewBox="0 0 50 68" fill="none" xmlns="http://www.w3.org/2000/svg">
<path d="M19.3467 -8.53722C20.1208 -7.92102 20.2602 -6.80882 19.6585 -6.05265L19.0048 -5.23121L20.034 -5.33573C21.0067 -5.4346 21.894 -4.72842 22.0161 -3.75834C22.1381 -2.7879 21.4477 -1.92033 20.4746 -1.82127L19.4819 -1.72019L20.2834 -1.0823C21.0574 -0.466105 21.1969 0.646098 20.5951 1.40226C19.9934 2.15842 18.8783 2.27225 18.104 1.65635L17.3185 1.03123L17.4477 2.05762C17.5695 3.02787 16.8796 3.89474 15.9068 3.99394C14.9338 4.093 14.0458 3.38638 13.9239 2.41594L13.7867 1.32582L13.1203 2.16331C12.5185 2.91945 11.4034 3.0333 10.6291 2.41739C9.85489 1.80125 9.71485 0.688474 10.3167 -0.067782L10.9393 -0.850254L9.90465 -0.745105C8.93161 -0.646036 8.04366 -1.35266 7.92173 -2.3231C7.79994 -3.29344 8.48968 -4.16036 9.46263 -4.25942L10.533 -4.36862L9.69245 -5.03752C8.9182 -5.65367 8.77816 -6.76644 9.37997 -7.5227C9.98179 -8.27895 11.0976 -8.39233 11.8719 -7.77617L12.7292 -7.0939L12.5992 -8.12715C12.4776 -9.09734 13.1673 -9.96432 14.1401 -10.0635C15.1131 -10.1625 16.0011 -9.4559 16.123 -8.48546L16.2443 -7.51655L16.8549 -8.28374C17.4567 -9.03999 18.5725 -9.15337 19.3467 -8.53722ZM16.0706 -4.43608C15.2964 -5.0519 14.1812 -4.93813 13.5795 -4.182C12.9781 -3.42587 13.1174 -2.31354 13.8912 -1.69743C14.6653 -1.08138 15.7812 -1.19498 16.3831 -1.95091C16.9849 -2.70717 16.8449 -3.81993 16.0706 -4.43608Z" fill="#5689CD" fill-opacity="0.57"/>
<path d="M31.3445 1.01064C32.1186 1.62683 32.258 2.73903 31.6563 3.4952L31.0026 4.31664L32.0318 4.21212C33.0045 4.11325 33.8918 4.81943 34.0139 5.78951C34.1359 6.75995 33.4455 7.62752 32.4724 7.72659L31.4797 7.82766L32.2812 8.46555C33.0552 9.08175 33.1947 10.1939 32.5929 10.9501C31.9912 11.7063 30.8761 11.8201 30.1018 11.2042L29.3163 10.5791L29.4455 11.6055C29.5673 12.5757 28.8774 13.4426 27.9046 13.5418C26.9316 13.6409 26.0436 12.9342 25.9217 11.9638L25.7845 10.8737L25.1181 11.7112C24.5163 12.4673 23.4012 12.5812 22.6269 11.9652C21.8527 11.3491 21.7127 10.2363 22.3145 9.48007L22.9371 8.6976L21.9025 8.80275C20.9294 8.90182 20.0415 8.19519 19.9195 7.22475C19.7977 6.25441 20.4875 5.3875 21.4604 5.28844L22.5308 5.17923L21.6903 4.51033C20.916 3.89418 20.776 2.78141 21.3778 2.02516C21.9796 1.2689 23.0954 1.15553 23.8697 1.77168L24.727 2.45396L24.597 1.4207C24.4754 0.450509 25.1651 -0.416473 26.1379 -0.515609C27.1109 -0.614677 27.9989 0.0919552 28.1208 1.06239L28.2421 2.0313L28.8527 1.26411C29.4545 0.507857 30.5703 0.394483 31.3445 1.01064ZM28.0684 5.11177C27.2942 4.49595 26.179 4.60972 25.5773 5.36585C24.9759 6.12198 25.1152 7.23431 25.889 7.85042C26.6631 8.46647 27.779 8.35287 28.3809 7.59694C28.9827 6.84069 28.8427 5.72792 28.0684 5.11177Z" fill="#5689CD" fill-opacity="0.57"/>
<path d="M43.3423 10.5585C44.1164 11.1747 44.2558 12.2869 43.6541 13.0431L43.0004 13.8645L44.0296 13.76C45.0023 13.6611 45.8896 14.3673 46.0117 15.3374C46.1337 16.3078 45.4433 17.1754 44.4702 17.2744L43.4775 17.3755L44.279 18.0134C45.0531 18.6296 45.1925 19.7418 44.5908 20.498C43.989 21.2541 42.8739 21.368 42.0996 20.7521L41.3141 20.1269L41.4433 21.1533C41.5651 22.1236 40.8752 22.9904 39.9024 23.0896C38.9294 23.1887 38.0414 22.4821 37.9195 21.5116L37.7823 20.4215L37.1159 21.259C36.5141 22.0152 35.399 22.129 34.6247 21.5131C33.8505 20.8969 33.7105 19.7842 34.3123 19.0279L34.9349 18.2454L33.9003 18.3506C32.9272 18.4497 32.0393 17.743 31.9173 16.7726C31.7956 15.8023 32.4853 14.9353 33.4582 14.8363L34.5286 14.7271L33.6881 14.0582C32.9138 13.442 32.7738 12.3293 33.3756 11.573C33.9774 10.8168 35.0932 10.7034 35.8675 11.3195L36.7248 12.0018L36.5948 10.9686C36.4732 9.99836 37.1629 9.13138 38.1357 9.03224C39.1087 8.93317 39.9967 9.63981 40.1186 10.6102L40.2399 11.5792L40.8505 10.812C41.4523 10.0557 42.5681 9.94233 43.3423 10.5585ZM40.0662 14.6596C39.292 14.0438 38.1768 14.1576 37.5751 14.9137C36.9737 15.6698 37.113 16.7822 37.8868 17.3983C38.6609 18.0143 39.7768 17.9007 40.3787 17.1448C40.9805 16.3885 40.8405 15.2758 40.0662 14.6596Z" fill="#5689CD" fill-opacity="0.57"/>
<path d="M55.3401 20.1063C56.1142 20.7225 56.2536 21.8347 55.6519 22.5909L54.9982 23.4123L56.0274 23.3078C57.0001 23.209 57.8874 23.9151 58.0095 24.8852C58.1315 25.8557 57.4411 26.7232 56.468 26.8223L55.4753 26.9234L56.2768 27.5613C57.0509 28.1775 57.1903 29.2897 56.5886 30.0458C55.9868 30.802 54.8717 30.9158 54.0974 30.2999L53.3119 29.6748L53.4411 30.7012C53.5629 31.6714 52.873 32.5383 51.9002 32.6375C50.9272 32.7366 50.0392 32.0299 49.9173 31.0595L49.7801 29.9694L49.1137 30.8069C48.5119 31.563 47.3968 31.6769 46.6225 31.0609C45.8483 30.4448 45.7083 29.332 46.3101 28.5758L46.9328 27.7933L45.8981 27.8984C44.925 27.9975 44.0371 27.2909 43.9151 26.3205C43.7934 25.3501 44.4831 24.4832 45.456 24.3841L46.5264 24.2749L45.6859 23.606C44.9116 22.9899 44.7716 21.8771 45.3734 21.1209C45.9752 20.3646 47.091 20.2512 47.8653 20.8674L48.7226 21.5497L48.5926 20.5164C48.471 19.5462 49.1607 18.6792 50.1335 18.5801C51.1066 18.481 51.9945 19.1877 52.1164 20.1581L52.2377 21.127L52.8483 20.3598C53.4501 19.6036 54.5659 19.4902 55.3401 20.1063ZM52.064 24.2075C51.2898 23.5917 50.1746 23.7054 49.5729 24.4616C48.9715 25.2177 49.1108 26.33 49.8846 26.9461C50.6588 27.5622 51.7746 27.4486 52.3765 26.6926C52.9783 25.9364 52.8383 24.8236 52.064 24.2075Z" fill="#5689CD" fill-opacity="0.57"/>
<path d="M10.0064 3.19984C10.7804 3.81604 10.9199 4.92824 10.3181 5.68441L9.66443 6.50585L10.6936 6.40133C11.6664 6.30246 12.5536 7.00864 12.6758 7.97872C12.7977 8.94916 12.1073 9.81673 11.1343 9.91579L10.1415 10.0169L10.9431 10.6548C11.7171 11.271 11.8566 12.3832 11.2548 13.1393C10.6531 13.8955 9.53794 14.0093 8.7637 13.3934L7.97817 12.7683L8.10739 13.7947C8.22916 14.7649 7.53929 15.6318 6.56649 15.731C5.59345 15.8301 4.7055 15.1234 4.58356 14.153L4.4464 13.0629L3.77993 13.9004C3.17817 14.6565 2.06305 14.7704 1.28881 14.1545C0.514554 13.5383 0.374521 12.4255 0.976324 11.6693L1.59901 10.8868L0.564321 10.992C-0.408719 11.091 -1.29667 10.3844 -1.4186 9.41396C-1.54039 8.44362 -0.850656 7.57671 0.1223 7.47765L1.19267 7.36844L0.352121 6.69954C-0.422136 6.08339 -0.562173 4.97062 0.0396374 4.21436C0.641461 3.45811 1.75726 3.34473 2.53152 3.96089L3.38888 4.64317L3.25887 3.60991C3.13723 2.63972 3.82698 1.77274 4.79978 1.6736C5.77281 1.57453 6.66076 2.28116 6.7827 3.2516L6.904 4.22051L7.51452 3.45332C8.11635 2.69707 9.23215 2.58369 10.0064 3.19984ZM6.73027 7.30098C5.95603 6.68516 4.84088 6.79893 4.23916 7.55506C3.63777 8.31119 3.77707 9.42352 4.55087 10.0396C5.32501 10.6557 6.44087 10.5421 7.04276 9.78615C7.64458 9.0299 7.50454 7.91713 6.73027 7.30098Z" fill="#5689CD" fill-opacity="0.57"/>
<path d="M22.0042 12.7477C22.7782 13.3639 22.9177 14.4761 22.3159 15.2323L21.6622 16.0537L22.6914 15.9492C23.6642 15.8503 24.5514 16.5565 24.6736 17.5266C24.7955 18.497 24.1051 19.3646 23.1321 19.4636L22.1393 19.5647L22.9409 20.2026C23.7149 20.8188 23.8544 21.931 23.2526 22.6872C22.6509 23.4433 21.5357 23.5572 20.7615 22.9413L19.976 22.3161L20.1052 23.3425C20.227 24.3128 19.5371 25.1797 18.5643 25.2788C17.5913 25.3779 16.7033 24.6713 16.5814 23.7009L16.4442 22.6107L15.7777 23.4482C15.176 24.2044 14.0609 24.3182 13.2866 23.7023C12.5124 23.0862 12.3723 21.9734 12.9741 21.2171L13.5968 20.4347L12.5621 20.5398C11.5891 20.6389 10.7011 19.9322 10.5792 18.9618C10.4574 17.9915 11.1471 17.1246 12.1201 17.0255L13.1905 16.9163L12.3499 16.2474C11.5757 15.6312 11.4356 14.5185 12.0374 13.7622C12.6393 13.006 13.7551 12.8926 14.5293 13.5087L15.3867 14.191L15.2567 13.1578C15.135 12.1876 15.8248 11.3206 16.7976 11.2215C17.7706 11.1224 18.6586 11.829 18.7805 12.7994L18.9018 13.7684L19.5123 13.0012C20.1142 12.2449 21.2299 12.1315 22.0042 12.7477ZM18.7281 16.8488C17.9538 16.233 16.8387 16.3468 16.237 17.1029C15.6356 17.859 15.7749 18.9714 16.5487 19.5875C17.3228 20.2035 18.4387 20.0899 19.0406 19.334C19.6424 18.5777 19.5023 17.465 18.7281 16.8488Z" fill="#5689CD" fill-opacity="0.57"/>
<path d="M34.0023 22.2955C34.7763 22.9117 34.9157 24.0239 34.314 24.7801L33.6603 25.6016L34.6895 25.497C35.6622 25.3982 36.5495 26.1043 36.6716 27.0744C36.7936 28.0449 36.1032 28.9124 35.1301 29.0115L34.1374 29.1126L34.9389 29.7505C35.713 30.3667 35.8524 31.4789 35.2507 32.235C34.6489 32.9912 33.5338 33.105 32.7595 32.4891L31.974 31.864L32.1032 32.8904C32.225 33.8606 31.5351 34.7275 30.5623 34.8267C29.5893 34.9258 28.7013 34.2191 28.5794 33.2487L28.4422 32.1586L27.7758 32.9961C27.174 33.7522 26.0589 33.8661 25.2847 33.2502C24.5104 32.634 24.3704 31.5212 24.9722 30.765L25.5949 29.9825L24.5602 30.0877C23.5871 30.1867 22.6992 29.4801 22.5772 28.5097C22.4555 27.5393 23.1452 26.6724 24.1181 26.5733L25.1885 26.4641L24.348 25.7952C23.5737 25.1791 23.4337 24.0663 24.0355 23.3101C24.6373 22.5538 25.7531 22.4404 26.5274 23.0566L27.3847 23.7389L27.2547 22.7056C27.1331 21.7354 27.8228 20.8684 28.7956 20.7693C29.7687 20.6702 30.6566 21.3769 30.7786 22.3473L30.8999 23.3162L31.5104 22.549C32.1122 21.7928 33.228 21.6794 34.0023 22.2955ZM30.7261 26.3967C29.9519 25.7809 28.8367 25.8946 28.235 26.6508C27.6336 27.4069 27.7729 28.5192 28.5467 29.1353C29.3209 29.7514 30.4367 29.6378 31.0386 28.8819C31.6404 28.1256 31.5004 27.0128 30.7261 26.3967Z" fill="#5689CD" fill-opacity="0.57"/>
<path d="M46.0001 31.8434C46.7741 32.4596 46.9135 33.5718 46.3118 34.328L45.6581 35.1494L46.6873 35.0449C47.66 34.946 48.5473 35.6522 48.6694 36.6223C48.7914 37.5927 48.101 38.4603 47.1279 38.5593L46.1352 38.6604L46.9367 39.2983C47.7108 39.9145 47.8502 41.0267 47.2485 41.7829C46.6467 42.539 45.5316 42.6529 44.7573 42.037L43.9718 41.4118L44.101 42.4382C44.2228 43.4085 43.5329 44.2754 42.5601 44.3746C41.5871 44.4736 40.6991 43.767 40.5772 42.7966L40.44 41.7064L39.7736 42.5439C39.1718 43.3001 38.0567 43.4139 37.2825 42.798C36.5082 42.1819 36.3682 41.0691 36.97 40.3128L37.5927 39.5304L36.558 39.6355C35.5849 39.7346 34.697 39.028 34.575 38.0575C34.4533 37.0872 35.143 36.2203 36.116 36.1212L37.1863 36.012L36.3458 35.3431C35.5715 34.7269 35.4315 33.6142 36.0333 32.8579C36.6351 32.1017 37.7509 31.9883 38.5252 32.6044L39.3825 33.2867L39.2525 32.2535C39.1309 31.2833 39.8206 30.4163 40.7934 30.3172C41.7665 30.2181 42.6544 30.9247 42.7764 31.8952L42.8977 32.8641L43.5082 32.0969C44.11 31.3406 45.2258 31.2272 46.0001 31.8434ZM42.7239 35.9445C41.9497 35.3287 40.8345 35.4425 40.2328 36.1986C39.6314 36.9547 39.7707 38.0671 40.5445 38.6832C41.3187 39.2992 42.4345 39.1856 43.0364 38.4297C43.6382 37.6734 43.4982 36.5607 42.7239 35.9445Z" fill="#5689CD" fill-opacity="0.57"/>
<path d="M57.9979 41.3913C58.7719 42.0074 58.9113 43.1196 58.3096 43.8758L57.6559 44.6973L58.6851 44.5927C59.6578 44.4939 60.5451 45.2 60.6672 46.1701C60.7892 47.1406 60.0988 48.0081 59.1257 48.1072L58.133 48.2083L58.9346 48.8462C59.7086 49.4624 59.848 50.5746 59.2463 51.3307C58.6445 52.0869 57.5294 52.2007 56.7552 51.5848L55.9696 50.9597L56.0988 51.9861C56.2206 52.9563 55.5307 53.8232 54.5579 53.9224C53.5849 54.0215 52.697 53.3148 52.575 52.3444L52.4379 51.2543L51.7714 52.0918C51.1696 52.8479 50.0545 52.9618 49.2803 52.3459C48.506 51.7297 48.366 50.6169 48.9678 49.8607L49.5905 49.0782L48.5558 49.1834C47.5827 49.2824 46.6948 48.5758 46.5729 47.6054C46.4511 46.635 47.1408 45.7681 48.1138 45.6691L49.1841 45.5598L48.3436 44.8909C47.5693 44.2748 47.4293 43.162 48.0311 42.4058C48.6329 41.6495 49.7487 41.5361 50.523 42.1523L51.3803 42.8346L51.2503 41.8013C51.1287 40.8311 51.8184 39.9641 52.7912 39.865C53.7643 39.7659 54.6522 40.4726 54.7742 41.443L54.8955 42.4119L55.506 41.6447C56.1078 40.8885 57.2236 40.7751 57.9979 41.3913ZM54.7217 45.4924C53.9475 44.8766 52.8323 44.9903 52.2306 45.7465C51.6292 46.5026 51.7685 47.6149 52.5423 48.231C53.3165 48.8471 54.4323 48.7335 55.0342 47.9776C55.636 47.2213 55.496 46.1085 54.7217 45.4924Z" fill="#5689CD" fill-opacity="0.57"/>
<path d="M0.666076 14.9371C1.4401 15.5533 1.57955 16.6655 0.977796 17.4217L0.324097 18.2432L1.3533 18.1386C2.32605 18.0398 3.2133 18.7459 3.33546 19.716C3.45739 20.6865 2.76699 21.554 1.79395 21.6531L0.801188 21.7542L1.60276 22.3921C2.37678 23.0083 2.51623 24.1205 1.91448 24.8766C1.31273 25.6328 0.19761 25.7466 -0.576637 25.1307L-1.36217 24.5056L-1.23294 25.532C-1.11117 26.5022 -1.80104 27.3691 -2.77384 27.4683C-3.74688 27.5674 -4.63484 26.8607 -4.75677 25.8903L-4.89394 24.8002L-5.5604 25.6377C-6.16216 26.3938 -7.27728 26.5077 -8.05152 25.8918C-8.82578 25.2756 -8.96581 24.1628 -8.36401 23.4066L-7.74132 22.6241L-8.77601 22.7293C-9.74905 22.8283 -10.637 22.1217 -10.7589 21.1513C-10.8807 20.1809 -10.191 19.314 -9.21803 19.215L-8.14766 19.1057L-8.98821 18.4368C-9.76247 17.8207 -9.90251 16.7079 -9.30069 15.9517C-8.69887 15.1954 -7.58307 15.082 -6.80881 15.6982L-5.95145 16.3805L-6.08146 15.3472C-6.20311 14.377 -5.51335 13.51 -4.54056 13.4109C-3.56752 13.3118 -2.67957 14.0185 -2.55763 14.9889L-2.43633 15.9578L-1.82581 15.1906C-1.22398 14.4344 -0.108186 14.321 0.666076 14.9371ZM-2.61006 19.0383C-3.3843 18.4225 -4.49945 18.5362 -5.10118 19.2924C-5.70256 20.0485 -5.56326 21.1608 -4.78946 21.7769C-4.01532 22.393 -2.89947 22.2794 -2.29757 21.5235C-1.69575 20.7672 -1.83579 19.6544 -2.61006 19.0383Z" fill="#5689CD" fill-opacity="0.57"/>
<path d="M12.6639 24.485C13.4379 25.1012 13.5774 26.2134 12.9756 26.9696L12.3219 27.791L13.3511 27.6865C14.3239 27.5876 15.2111 28.2938 15.3333 29.2639C15.4552 30.2343 14.7648 31.1019 13.7917 31.201L12.799 31.302L13.6006 31.9399C14.3746 32.5561 14.514 33.6683 13.9123 34.4245C13.3105 35.1806 12.1954 35.2945 11.4212 34.6786L10.6356 34.0534L10.7649 35.0798C10.8866 36.0501 10.1968 36.917 9.22396 37.0162C8.25092 37.1152 7.36297 36.4086 7.24103 35.4382L7.10387 34.348L6.4374 35.1855C5.83564 35.9417 4.72052 36.0555 3.94628 35.4396C3.17202 34.8235 3.03199 33.7107 3.6338 32.9544L4.25648 32.172L3.22179 32.2771C2.24875 32.3762 1.3608 31.6696 1.23887 30.6991C1.11708 29.7288 1.80681 28.8619 2.77977 28.7628L3.85014 28.6536L3.00959 27.9847C2.23533 27.3685 2.0953 26.2558 2.69711 25.4995C3.29893 24.7433 4.41473 24.6299 5.18899 25.246L6.04635 25.9283L5.91634 24.8951C5.7947 23.9249 6.48445 23.0579 7.45725 22.9588C8.43028 22.8597 9.31823 23.5663 9.44017 24.5368L9.56147 25.5057L10.172 24.7385C10.7738 23.9822 11.8896 23.8688 12.6639 24.485ZM9.38775 28.5861C8.6135 27.9703 7.49835 28.0841 6.89663 28.8402C6.29524 29.5963 6.43454 30.7087 7.20835 31.3248C7.98248 31.9408 9.09834 31.8272 9.70023 31.0713C10.3021 30.3151 10.162 29.2023 9.38775 28.5861Z" fill="#5689CD" fill-opacity="0.57"/>
<path d="M24.6619 34.0329C25.436 34.649 25.5754 35.7612 24.9736 36.5174L24.3199 37.3389L25.3491 37.2343C26.3219 37.1355 27.2091 37.8416 27.3313 38.8117C27.4532 39.7822 26.7628 40.6497 25.7898 40.7488L24.797 40.8499L25.5986 41.4878C26.3726 42.104 26.5121 43.2162 25.9103 43.9723C25.3086 44.7285 24.1935 44.8423 23.4192 44.2264L22.6337 43.6013L22.7629 44.6277C22.8847 45.5979 22.1948 46.4648 21.222 46.564C20.249 46.6631 19.361 45.9564 19.2391 44.986L19.1019 43.8959L18.4354 44.7334C17.8337 45.4895 16.7186 45.6034 15.9443 44.9875C15.1701 44.3713 15.03 43.2585 15.6318 42.5023L16.2545 41.7198L15.2198 41.825C14.2468 41.924 13.3588 41.2174 13.2369 40.247C13.1151 39.2766 13.8049 38.4097 14.7778 38.3107L15.8482 38.2014L15.0076 37.5325C14.2334 36.9164 14.0933 35.8036 14.6952 35.0474C15.297 34.2911 16.4128 34.1777 17.187 34.7939L18.0444 35.4762L17.9144 34.4429C17.7927 33.4727 18.4825 32.6057 19.4553 32.5066C20.4283 32.4075 21.3163 33.1142 21.4382 34.0846L21.5595 35.0535L22.17 34.2863C22.7719 33.5301 23.8877 33.4167 24.6619 34.0329ZM21.3858 38.134C20.6115 37.5182 19.4964 37.6319 18.8947 38.3881C18.2933 39.1442 18.4326 40.2565 19.2064 40.8726C19.9805 41.4887 21.0964 41.3751 21.6983 40.6192C22.3001 39.8629 22.1601 38.7501 21.3858 38.134Z" fill="#5689CD" fill-opacity="0.57"/>
<path d="M36.6597 43.5807C37.4338 44.1969 37.5732 45.3091 36.9714 46.0653L36.3177 46.8867L37.347 46.7822C38.3197 46.6833 39.207 47.3895 39.3291 48.3596C39.451 49.33 38.7606 50.1976 37.7876 50.2967L36.7948 50.3977L37.5964 51.0356C38.3704 51.6518 38.5099 52.764 37.9081 53.5202C37.3064 54.2763 36.1913 54.3902 35.417 53.7743L34.6315 53.1492L34.7607 54.1755C34.8825 55.1458 34.1926 56.0127 33.2198 56.1119C32.2468 56.2109 31.3588 55.5043 31.2369 54.5339L31.0997 53.4437L30.4332 54.2812C29.8315 55.0374 28.7164 55.1512 27.9421 54.5353C27.1679 53.9192 27.0278 52.8064 27.6296 52.0501L28.2523 51.2677L27.2176 51.3728C26.2446 51.4719 25.3566 50.7653 25.2347 49.7948C25.1129 48.8245 25.8027 47.9576 26.7756 47.8585L27.846 47.7493L27.0054 47.0804C26.2312 46.4642 26.0911 45.3515 26.693 44.5952C27.2948 43.839 28.4106 43.7256 29.1848 44.3417L30.0422 45.024L29.9122 43.9908C29.7905 43.0206 30.4803 42.1536 31.4531 42.0545C32.4261 41.9554 33.3141 42.662 33.436 43.6325L33.5573 44.6014L34.1678 43.8342C34.7697 43.0779 35.8855 42.9646 36.6597 43.5807ZM33.3836 47.6818C32.6093 47.066 31.4942 47.1798 30.8925 47.9359C30.2911 48.692 30.4304 49.8044 31.2042 50.4205C31.9783 51.0365 33.0942 50.9229 33.6961 50.167C34.2979 49.4108 34.1579 48.298 33.3836 47.6818Z" fill="#5689CD" fill-opacity="0.57"/>
<path d="M48.6578 53.1286C49.4318 53.7448 49.5712 54.857 48.9695 55.6131L48.3158 56.4346L49.345 56.33C50.3177 56.2312 51.205 56.9374 51.3272 57.9074C51.4491 58.8779 50.7587 59.7454 49.7856 59.8445L48.7929 59.9456L49.5945 60.5835C50.3685 61.1997 50.5079 62.3119 49.9062 63.068C49.3044 63.8242 48.1893 63.938 47.4151 63.3221L46.6295 62.697L46.7588 63.7234C46.8805 64.6936 46.1907 65.5605 45.2179 65.6597C44.2448 65.7588 43.3569 65.0521 43.2349 64.0817L43.0978 62.9916L42.4313 63.8291C41.8295 64.5852 40.7144 64.6991 39.9402 64.0832C39.1659 63.467 39.0259 62.3542 39.6277 61.598L40.2504 60.8155L39.2157 60.9207C38.2426 61.0197 37.3547 60.3131 37.2328 59.3427C37.111 58.3723 37.8007 57.5054 38.7737 57.4064L39.844 57.2972L39.0035 56.6282C38.2292 56.0121 38.0892 54.8993 38.691 54.1431C39.2928 53.3868 40.4086 53.2734 41.1829 53.8896L42.0402 54.5719L41.9102 53.5386C41.7886 52.5684 42.4783 51.7014 43.4511 51.6023C44.4242 51.5032 45.3121 52.2099 45.4341 53.1803L45.5554 54.1492L46.1659 53.382C46.7677 52.6258 47.8835 52.5124 48.6578 53.1286ZM45.3824 57.2303C44.6081 56.6142 43.4923 56.7275 42.8905 57.4838C42.289 58.24 42.4289 59.3529 43.203 59.9689C43.9772 60.585 45.093 60.4714 45.6949 59.7155C46.2967 58.9592 46.1567 57.8464 45.3824 57.2303Z" fill="#5689CD" fill-opacity="0.57"/>
<path d="M3.32379 36.2221C4.09782 36.8383 4.23726 37.9505 3.63551 38.7066L2.98181 39.5281L4.01101 39.4235C4.98376 39.3247 5.87101 40.0309 5.99317 41.0009C6.11511 41.9714 5.4247 42.8389 4.45166 42.938L3.4589 43.0391L4.26048 43.677C5.0345 44.2932 5.17395 45.4054 4.5722 46.1615C3.97044 46.9177 2.85533 47.0315 2.08108 46.4156L1.29555 45.7905L1.42477 46.8169C1.54654 47.7871 0.856677 48.654 -0.116129 48.7532C-1.08917 48.8523 -1.97712 48.1457 -2.09905 47.1752L-2.23622 46.0851L-2.90269 46.9226C-3.50445 47.6787 -4.61956 47.7926 -5.39381 47.1767C-6.16806 46.5605 -6.3081 45.4478 -5.70629 44.6915L-5.08361 43.909L-6.1183 44.0142C-7.09134 44.1132 -7.97929 43.4066 -8.10122 42.4362C-8.223 41.4658 -7.53327 40.5989 -6.56032 40.4999L-5.48995 40.3907L-6.3305 39.7218C-7.10475 39.1056 -7.24479 37.9928 -6.64298 37.2366C-6.04116 36.4803 -4.92536 36.367 -4.1511 36.9831L-3.29374 37.6654L-3.42374 36.6321C-3.54539 35.6619 -2.85563 34.795 -1.88284 34.6958C-0.909805 34.5967 -0.021854 35.3034 0.100084 36.2738L0.221383 37.2427L0.831907 36.4755C1.43373 35.7193 2.54953 35.6059 3.32379 36.2221ZM0.0484219 40.3238C-0.725839 39.7077 -1.84165 39.821 -2.44346 40.5773C-3.04498 41.3335 -2.9051 42.4464 -2.13098 43.0625C-1.35683 43.6785 -0.240979 43.5649 0.360906 42.809C0.962729 42.0527 0.822684 40.94 0.0484219 40.3238Z" fill="#5689CD" fill-opacity="0.57"/>
<path d="M15.3216 45.7699C16.0956 46.3861 16.2351 47.4983 15.6333 48.2545L14.9796 49.0759L16.0088 48.9714C16.9816 48.8725 17.8688 49.5787 17.991 50.5488C18.1129 51.5192 17.4225 52.3868 16.4495 52.4859L15.4567 52.5869L16.2583 53.2248C17.0323 53.841 17.1718 54.9532 16.57 55.7094C15.9682 56.4655 14.8531 56.5794 14.0789 55.9635L13.2934 55.3384L13.4226 56.3648C13.5443 57.335 12.8545 58.2019 11.8817 58.3011C10.9086 58.4001 10.0207 57.6935 9.89875 56.7231L9.76158 55.6329L9.09511 56.4704C8.49335 57.2266 7.37824 57.3404 6.60399 56.7245C5.82974 56.1084 5.68971 54.9956 6.29151 54.2393L6.9142 53.4569L5.87951 53.562C4.90647 53.6611 4.01851 52.9545 3.89658 51.984C3.7748 51.0137 4.46453 50.1468 5.43749 50.0477L6.50785 49.9385L5.66731 49.2696C4.89305 48.6535 4.75301 47.5407 5.35482 46.7844C5.95665 46.0282 7.07244 45.9148 7.84671 46.531L8.70406 47.2132L8.57406 46.18C8.45241 45.2098 9.14217 44.3428 10.115 44.2437C11.088 44.1446 11.9759 44.8512 12.0979 45.8217L12.2192 46.7906L12.8297 46.0234C13.4315 45.2671 14.5473 45.1538 15.3216 45.7699ZM12.0462 49.8717C11.272 49.2555 10.1562 49.3689 9.55434 50.1251C8.95283 50.8814 9.0927 51.9942 9.86682 52.6103C10.641 53.2264 11.7568 53.1128 12.3587 52.3568C12.9605 51.6006 12.8205 50.4878 12.0462 49.8717Z" fill="#5689CD" fill-opacity="0.57"/>
<path d="M27.3194 55.3178C28.0934 55.934 28.2329 57.0462 27.6311 57.8023L26.9774 58.6238L28.0066 58.5192C28.9794 58.4204 29.8666 59.1266 29.9888 60.0966C30.1107 61.0671 29.4203 61.9346 28.4473 62.0337L27.4545 62.1348L28.2561 62.7727C29.0301 63.3889 29.1696 64.5011 28.5678 65.2572C27.966 66.0134 26.8509 66.1272 26.0767 65.5113L25.2912 64.8862L25.4204 65.9126C25.5421 66.8828 24.8523 67.7497 23.8795 67.8489C22.9064 67.948 22.0185 67.2414 21.8966 66.2709L21.7594 65.1808L21.0929 66.0183C20.4912 66.7744 19.376 66.8883 18.6018 66.2724C17.8275 65.6562 17.6875 64.5435 18.2893 63.7872L18.912 63.0047L17.8773 63.1099C16.9043 63.2089 16.0163 62.5023 15.8944 61.5319C15.7726 60.5615 16.4623 59.6946 17.4353 59.5956L18.5057 59.4864L17.6651 58.8175C16.8909 58.2013 16.7508 57.0885 17.3526 56.3323C17.9544 55.576 19.0702 55.4627 19.8445 56.0788L20.7019 56.7611L20.5719 55.7278C20.4502 54.7576 21.14 53.8907 22.1128 53.7915C23.0858 53.6925 23.9738 54.3991 24.0957 55.3695L24.217 56.3384L24.8275 55.5712C25.4293 54.815 26.5451 54.7016 27.3194 55.3178ZM24.0433 59.4189C23.269 58.8031 22.1539 58.9169 21.5521 59.673C20.9508 60.4291 21.0901 61.5414 21.8639 62.1575C22.638 62.7736 23.7539 62.66 24.3557 61.9041C24.9576 61.1478 24.8175 60.035 24.0433 59.4189Z" fill="#5689CD" fill-opacity="0.57"/>
<path d="M39.3174 64.8656C40.0915 65.4818 40.2309 66.594 39.6292 67.3502L38.9755 68.1716L40.0047 68.0671C40.9774 67.9682 41.8647 68.6744 41.9868 69.6445C42.1088 70.6149 41.4184 71.4825 40.4453 71.5816L39.4526 71.6826L40.2541 72.3205C41.0281 72.9367 41.1676 74.0489 40.5659 74.8051C39.9641 75.5612 38.849 75.6751 38.0747 75.0592L37.2892 74.4341L37.4184 75.4605C37.5402 76.4307 36.8503 77.2976 35.8775 77.3968C34.9045 77.4958 34.0165 76.7892 33.8946 75.8188L33.7574 74.7286L33.091 75.5661C32.4892 76.3223 31.3741 76.4361 30.5998 75.8202C29.8256 75.2041 29.6856 74.0913 30.2874 73.3351L30.91 72.5526L29.8754 72.6577C28.9023 72.7568 28.0144 72.0502 27.8924 71.0797C27.7706 70.1094 28.4604 69.2425 29.4333 69.1434L30.5037 69.0342L29.6632 68.3653C28.8889 67.7492 28.7489 66.6364 29.3507 65.8801C29.9525 65.1239 31.0683 65.0105 31.8426 65.6267L32.6999 66.3089L32.5699 65.2757C32.4483 64.3055 33.138 63.4385 34.1108 63.3394C35.0838 63.2403 35.9718 63.9469 36.0937 64.9174L36.215 65.8863L36.8256 65.1191C37.4274 64.3628 38.5432 64.2495 39.3174 64.8656ZM36.0413 68.9667C35.2671 68.3509 34.1519 68.4647 33.5502 69.2208C32.9488 69.977 33.0881 71.0893 33.8619 71.7054C34.636 72.3215 35.7519 72.2078 36.3538 71.4519C36.9556 70.6957 36.8156 69.5829 36.0413 68.9667Z" fill="#5689CD" fill-opacity="0.57"/>
</svg>
